<?xml version="1.0" encoding="utf-8"?>
<!-- Generator: Adobe Illustrator 28.1.0, SVG Export Plug-In . SVG Version: 6.00 Build 0)  -->
<svg version="1.1" id="レイヤー_1" xmlns="http://www.w3.org/2000/svg" xmlns:xlink="http://www.w3.org/1999/xlink" x="0px"
	 y="0px" viewBox="0 0 100 10" style="enable-background:new 0 0 100 10;" xml:space="preserve">
<style type="text/css">
	.st0{opacity:0.3;enable-background:new    ;}
</style>
<path class="st0" d="M100,5.5C91.5,3,79.5,7.5,71.5,8C58,9,49,0.5,36,2c-9,1-13.5,3.5-20.5,3.5C8.5,6,0,2,0,2v8h100V5.5z"/>
<path class="st0" d="M100,1.5C87.8,6.6,79.3,2.1,67.8,2.6S53,6.5,42.5,5.5S23,0,15,0S1,3,0,4v6h100V1.5z"/>
<path d="M100,7.5C91.5,5,77.1,11.8,54,8C34.6,4.8,14.4,4.1,0,8.5V10h100V7.5z"/>
</svg>
