<?xml version="1.0" encoding="utf-8"?>
<!-- Generator: Adobe Illustrator 26.3.1, SVG Export Plug-In . SVG Version: 6.00 Build 0)  -->
<svg id="レイヤー_1" xmlns="http://www.w3.org/2000/svg" xmlns:xlink="http://www.w3.org/1999/xlink" x="0px"
	 y="0px" viewBox="0 0 20 2" style="enable-background:new 0 0 20 2;" xml:space="preserve">
<style type="text/css">
	.st0{opacity:0.3;enable-background:new    ;}
</style>
<path class="st0" d="M0,1.1c1.7-0.5,4.1,0.4,5.7,0.5c2.7,0.2,4.5-1.5,7.1-1.2c1.8,0.2,2.7,0.7,4.1,0.7C18.3,1.2,20,0.4,20,0.4V2H0
	V1.1z"/>
<path class="st0" d="M0,0.3c2.3,0.9,4.3,0.2,6.6,0.3S9.9,1.2,12,0.9C13.6,0.8,15.4,0,17,0s2.8,0.6,3,0.8V2H0V0.3z"/>
<path d="M0,1.5C1.7,1,5.3,2,9.2,1.6S17.5,1.2,20,1.7V2H0V1.5z"/>
</svg>
